<svg xmlns="http://www.w3.org/2000/svg" version="1.1" xmlns:xlink="http://www.w3.org/1999/xlink" xmlns:svgjs="http://svgjs.dev/svgjs" width="1000" height="1000" viewBox="0 0 1000 1000"><rect width="1000" height="1000" fill="#ffffff"></rect><g transform="matrix(0.7,0,0,0.7,149.57575757575756,282.1265587044535)"><svg viewBox="0 0 396 247" data-background-color="#111111" preserveAspectRatio="xMidYMid meet" height="623" width="1000" xmlns="http://www.w3.org/2000/svg" xmlns:xlink="http://www.w3.org/1999/xlink"><defs></defs><g id="tight-bounds" transform="matrix(1,0,0,1,0.2400000000000091,-0.09999999999999432)"><svg viewBox="0 0 395.52 247.2" height="247.2" width="395.52"><g><svg></svg></g><g><svg viewBox="0 0 395.52 247.2" height="247.2" width="395.52"><g transform="matrix(2.621058172112937, 0, 0, 2.621058172112937, 66.40304568681918, 1)"><svg xmlns="http://www.w3.org/2000/svg" xmlns:xlink="http://www.w3.org/1999/xlink" version="1.1" x="0" y="0" viewBox="0 2 100.23200225830078 93.55000305175781" enable-background="new 0 0 100 100" xml:space="preserve" width="100.23200225830078" height="93.55000305175781" class="icon-none" fill="#7ffbff" data-fill-palette-color="accent" id="none"><g fill="#7ffbff" data-fill-palette-color="accent"><path fill-rule="evenodd" clip-rule="evenodd" d="M36.163 71.443c0.794 0.611 1.527 1.283 2.48 1.736 0.692-1.098 1.815-2.092 2.108-3.597 0.112-0.568-0.075-1.135 0-1.738 0.172-1.372 0.658-2.773 0.746-4.217-0.16-0.006-0.172-0.159-0.373-0.124-0.983 1.395-2.182 3.165-1.985 5.335C38.094 69.652 36.893 70.313 36.163 71.443z" fill="#000000" data-fill-palette-color="accent"></path><path fill-rule="evenodd" clip-rule="evenodd" d="M41.87 74.296c0.473 0.726 1.809 0.589 2.356 1.241 4.033 0.93 7.601 2.322 10.667 4.218 0.474-2.71-0.146-5.391-0.992-7.195-0.915-0.588-1.603-1.345-1.736-2.48-0.164-1.382-0.508-2.171-0.621-3.35-0.041-0.438 0.084-0.966 0-1.364-0.06-0.288-0.345-0.541-0.495-0.868-0.601-1.309-1.196-2.368-2.357-2.854-0.187 0.525 0.33 0.982 0.125 1.116-0.201-0.677-0.715-0.264-0.745 0.248 0.023-0.355 0.016-0.677-0.373-0.62-0.39 0.089 0.341 0.709 0 0.745-0.797-0.442-0.436-2.044-1.364-2.357-0.507 1.353-0.378 3.343-1.364 4.218-0.167 1.871-1.118 3.749-0.248 5.583-0.482 0.096-0.697 0.459-1.117 0.619C43.226 72.428 42.249 73.064 41.87 74.296z" fill="#000000" data-fill-palette-color="accent"></path><path fill-rule="evenodd" clip-rule="evenodd" d="M58.244 81.243c1.354 0.299 2.365 0.941 3.845 1.117 0.047-0.487 0.408-0.809 0.619-1.241 1.04-2.119 1.064-5.258 1.118-8.558-1.257-1.728-3.101-2.79-4.342-4.519C59.141 67.564 59.068 67 58.367 67c-0.083 0-0.165 0-0.248 0 0.106 1 0.71 2.938 0.868 4.764 0.278 0.42 0.817-0.514 0.868-0.284C58.801 74.228 58.049 77.245 58.244 81.243z" fill="#000000" data-fill-palette-color="accent"></path><path fill-rule="evenodd" clip-rule="evenodd" d="M49.974 2C22.374 2 0 24.374 0 51.974c0 13.99 5.756 26.632 15.021 35.703-0.224-0.601-0.122-1.231 0.178-1.844 2.188-1.072 3.373-3.233 3.226-6.327-0.034-0.702-0.479-1.768-0.249-2.729 0.978-0.79 1.816-0.451 2.729-0.621 1.645-0.305 2.944-1.497 3.969-2.231 0.417-0.3 0.907-0.447 1.365-0.745 2.095-1.361 3.222-2.899 6.327-2.232 0.214-0.613 0.565-1.089 1.24-1.24 0.924-1.14 1.693-2.833 2.605-4.218 0.173-0.264 0.487-0.346 0.62-0.62 0.161-0.331 0.111-0.84 0.249-1.241 0.169-0.492 0.528-0.858 0.62-1.24 0.208-0.859-0.067-1.379-0.248-1.86-0.54-1.435-0.71-2.981-0.745-4.59-0.469-0.179-0.238 0.341-0.62 0.248-0.623-1.628-0.442-2.841-0.744-4.838-0.364-0.001-0.42 0.574-0.744 0.248-0.189-0.847 0.702-1.147 0.372-1.736-0.37-0.356-0.368 0.361-0.868 0.248 0.145-1.013 0.766-1.55 0.744-2.73-0.18-0.067-0.641 0.146-0.62-0.124 0.387-0.854 0.843-1.637 0.992-2.729-0.39-0.141-0.301 0.195-0.496 0.249-0.463-0.998 0.7-1.991 0.372-2.853-0.401-0.154-0.094 0.4-0.496 0.248 0.21-1.774 1.229-2.74 2.232-3.722 0.259-1.147 0.96-1.851 0.993-3.225 0.348-0.232 0.522-0.637 0.62-1.117-0.165-0.304-0.461 0.136-0.496-0.125 0.206-0.333 0.67-0.951 0-1.116 0.359-0.509 0.796-0.94 0.992-1.613-0.002-0.205-0.344-0.069-0.373-0.248 1.172-0.806 0.737-2.802 0.373-4.218 0.181-0.108 0.393-0.187 0.372-0.497-0.268-0.683-0.753-1.149-1.116-1.737 0.226-0.674 0.447-1.325 0.495-1.86 0.293-0.002 0.365 0.214 0.746 0.124-0.778-1.074 0.227-2.457 0.992-3.101 1.049 0.059 1.212 1.187 1.861 1.86 0.459 0.477 1.186 0.611 1.612 1.117 0.301 0.357 0.407 0.821 0.621 1.241 0.458 0.121 0.669 0.488 1.365 0.372 0.368 0.541 1.051 0.768 1.364 1.364 0.483 1.212 1.015 2.375 1.24 3.846 1.144 0.675 2.435 1.204 2.605 2.853-0.615 0.304-1.269-0.036-1.985 0 0.15 0.402 0.561 0.742 0.62 1.24 0.101 0.85-0.431 1.492-0.249 2.233 0.289 1.167 1.498 1.033 1.985 2.232-0.234 0.056-0.748-0.168-0.62 0.249 0.582 0.369 1.191 0.71 1.736 1.116-0.46-0.088-0.532 0.211-0.992 0.124 0.02 0.559 0.768 0.391 0.744 0.993-0.256 0.075-0.469 0.191-0.372 0.62 0.36 0.136 0.881 0.112 1.24 0.248-0.115 0.298-0.498 0.328-0.372 0.868 0.681 0.395 0.979 1.173 1.239 1.985 0.803 0.396 1.598 0.801 2.234 1.364 0.039 0.168 0.177 0.236 0.123 0.497 1.241 0.5 1.529 1.953 2.357 2.729 1.018 0.952 2.617 1.594 3.721 2.233 0.423 0.244 0.668 0.534 1.118 0.869 0.64 0.477 1.809 0.211 2.479 0.867 0.535 1.109 1.608 1.501 2.233 2.358 0.651 0.891 0.736 1.991 1.612 2.852 1.12 0.163 1.729 0.836 2.48 1.366 0 0.413 0.404 0.422 0.374 0.867 1.821 1.363 1.46 4.396 1.983 5.954 0.732 2.171 1.281 3.718 3.598 4.094 1.37 0.223 2.864-0.421 3.722 0.495-1.489-0.041-1.979 0.916-3.102 1.24-0.391 0.228 0.417 0.832 0 1.03C78.448 73.012 78.061 74 78.091 74c-0.373 0-0.744 0-1.116 0 0.06 0-0.228 0.271-0.373 0.582-0.459-0.2-0.91-0.632-1.612-0.591-0.072 0.218 0.15 0.634-0.123 0.647-0.345-0.193-0.69-0.433-1.116-0.542 0.018 0.307 0.022 0.577-0.249 0.597-1.114-0.333-1.508-1.781-2.604-1.751-0.394-0.971-0.593-2.143-0.993-3.105 0.114-1.027-0.077-1.056-0.123-1.989-0.167-0.245-0.866 0.039-0.869-0.372 0.097-0.511-0.19-0.639-0.123-1.117-0.625 0.169-0.411-0.5-0.621-0.745-0.158-0.174-0.608-0.055-0.621-0.373-0.205-0.538-0.093-1.395-0.62-1.612-1.002 2.14 0.309 3.739 0.994 5.582 0.098 0.267 0.097 0.943 0.37 1.489 0.028 0.055 0.313 0.153 0.369 0.248 0.177 0.296 0.744 1.085 0.744 1.115 0-0.021-0.563 0.634-0.625 0.745-0.408 0.726-0.327 0.976-0.504 1.736-0.497 2.126-1.973 3.97-1.382 6.327-0.65 0.798-1.342 1.589-1.649 2.729 1.104 0.674 1.886 1.601 3.155 2.109 1.199 1.737 3.247 2.771 4.239 4.713C73.788 90.803 74 93.026 75 93.44v2.11c15-8.563 25.232-24.863 25.232-43.577C100.232 24.374 77.574 2 49.974 2z" fill="#000000" data-fill-palette-color="accent"></path></g></svg></g><rect width="348.0576" height="45.575981040142665" fill="#111111" y="100.81200947992866" x="23.7312" data-fill-palette-color="quaternary"></rect><g transform="matrix(1,0,0,1,39.55200000000002,105.915145421654)"><svg viewBox="0 0 316.41599999999994 35.36970915669199" height="35.36970915669199" width="316.41599999999994"><g><svg viewBox="0 0 317.99807999999996 35.54655770247545" height="35.36970915669199" width="316.41599999999994"><g><svg viewBox="0 0 317.99807999999996 35.54655770247545" height="35.54655770247545" width="317.99807999999996"><g><svg viewBox="0 0 317.99807999999996 35.54655770247545" height="35.54655770247545" width="317.99807999999996"><g><rect width="317.99807999999996" height="1.9591449193877737" x="0" y="24.032471845997485" fill="#000000" opacity="1" stroke-width="0" stroke="transparent" fill-opacity="1" class="rect-o-0" data-fill-palette-color="primary" rx="1%" id="o-0" data-palette-color="#b10dc9"></rect></g><g transform="matrix(1,0,0,1,0.7910399999999811,0)"><svg viewBox="0 0 316.416 21.7245786163522" height="21.7245786163522" width="316.416"><g transform="matrix(1,0,0,1,0,0)"><svg width="316.416" viewBox="-12.5 -32 478.4700012207031 32.75" height="21.7245786163522" data-palette-color="#b10dc9"><g class="undefined-text-0" data-fill-palette-color="primary" id="text-0"><path d="M30.6-8L29.2 0 10.2 0 15.7-31.25 25.2-31.25 21.1-8 30.6-8ZM9.1-2.4L8.7-0.15-12.5-2.4 9.1-2.4ZM10.8-12.05L10.4-9.8-10.8-12.05 10.8-12.05ZM11.65-16.85L11.25-14.6-9.95-16.85 11.65-16.85ZM12.5-21.65L12.1-19.4-9.1-21.65 12.5-21.65ZM13.3-26.45L12.95-24.2-8.25-26.45 13.3-26.45ZM9.95-7.25L9.55-5-11.65-7.25 9.95-7.25ZM14.15-31.25L13.75-29-7.4-31.25 14.15-31.25ZM56.55-26.95L56.55-26.95Q61.95-26.95 64.25-24.88 66.55-22.8 66.55-18.4L66.55-18.4Q66.55-16.25 66-13.2L66-13.2Q64.75-6 61.6-2.7 58.45 0.6 51.7 0.6L51.7 0.6Q46.4 0.6 44.15-1.48 41.9-3.55 41.9-7.9L41.9-7.9Q41.9-10.15 42.45-13.2L42.45-13.2Q43.7-20.4 46.8-23.68 49.9-26.95 56.55-26.95ZM50.2-7L53.15-7Q54.6-7 55.32-7.35 56.05-7.7 56.3-8.9L56.3-8.9 58.2-19.35 55.15-19.35Q53.75-19.35 52.97-19 52.2-18.65 52.05-17.5L52.05-17.5 50.2-7ZM20.75-12.05L40.7-12.05Q40.5-10.5 40.45-9.95L40.45-9.95 20.75-12.05ZM21.65-16.85L41.65-16.85 41.2-14.75 21.65-16.85ZM20.95-7.25L40.4-7.25Q40.4-6.45 40.6-5.15L40.6-5.15 20.95-7.25ZM23.65-21.65L43.4-21.65Q42.8-20.35 42.55-19.65L42.55-19.65 23.65-21.65ZM25.3-2.4L41.45-2.4Q42.05-1.2 42.75-0.55L42.75-0.55 25.3-2.4ZM30.35-26.45L47.75-26.45Q46.55-25.75 45.7-24.8L45.7-24.8 30.35-26.45ZM101.55 0L94.75 0 89.59-9.9 89.4-9.9 87.65 0 79.25 0 83.84-26.45 90.65-26.45 95.84-16.6 96.15-16.6 97.84-26.45 106.19-26.45 101.55 0ZM78-2.4L77.59-0.15 56.4-2.4 78-2.4ZM79.7-12.05L79.3-9.8 58.09-12.05 79.7-12.05ZM80.55-16.85L80.15-14.6 58.95-16.85 80.55-16.85ZM81.4-21.65L81-19.4 59.8-21.65 81.4-21.65ZM82.2-26.45L81.84-24.2 60.65-26.45 82.2-26.45ZM78.84-7.25L78.45-5 57.25-7.25 78.84-7.25ZM136.29-15.55L135.44-10.75 127.99-10.75 127.39-7.35 136.64-7.35 135.34 0 117.69 0 122.29-26.45 139.89-26.45 137.54-18.95 129.39-18.95 128.79-15.55 136.29-15.55ZM116.44-2.4L116.04-0.15 94.84-2.4 116.44-2.4ZM118.14-12.05L117.74-9.8 96.54-12.05 118.14-12.05ZM118.99-16.85L118.59-14.6 97.39-16.85 118.99-16.85ZM119.84-21.65L119.44-19.4 98.24-21.65 119.84-21.65ZM120.64-26.45L120.29-24.2 99.09-26.45 120.64-26.45ZM117.29-7.25L116.89-5 95.69-7.25 117.29-7.25Z" fill="#000000" data-fill-palette-color="primary"></path><path d="M131.39-31.25L151.04-31.25 151.04-29 131.39-31.25ZM131.39-26.45L151.04-26.45 151.04-24.2 131.39-26.45ZM131.39-21.65L151.04-21.65 151.04-19.4 131.39-21.65ZM131.39-16.85L151.04-16.85 151.04-14.6 131.39-16.85ZM131.39-12.05L151.04-12.05 151.04-9.8 131.39-12.05ZM131.39-7.25L151.04-7.25 151.04-5 131.39-7.25ZM131.39-2.4L151.04-2.4 151.04-0.15 131.39-2.4ZM181.39 0L168.79 0 168.79-11.5 168.24-11.5 164.09 0 152.54 0 152.54-31.25 162.49-31.25 161.59-13.8 161.89-13.8 168.39-31.25 175.94-31.25 175.94-13.8 176.24-13.8 181.59-31.25 191.54-31.25 181.39 0ZM214.99-26.95L214.99-26.95Q220.39-26.95 222.69-24.88 224.99-22.8 224.99-18.4L224.99-18.4Q224.99-16.25 224.44-13.2L224.44-13.2Q223.19-6 220.04-2.7 216.89 0.6 210.14 0.6L210.14 0.6Q204.84 0.6 202.59-1.48 200.34-3.55 200.34-7.9L200.34-7.9Q200.34-10.15 200.89-13.2L200.89-13.2Q202.14-20.4 205.24-23.68 208.34-26.95 214.99-26.95ZM208.64-7L211.59-7Q213.04-7 213.76-7.35 214.49-7.7 214.74-8.9L214.74-8.9 216.64-19.35 213.59-19.35Q212.19-19.35 211.41-19 210.64-18.65 210.49-17.5L210.49-17.5 208.64-7ZM179.19-12.05L199.14-12.05Q198.94-10.5 198.89-9.95L198.89-9.95 179.19-12.05ZM180.09-16.85L200.09-16.85 199.64-14.75 180.09-16.85ZM179.39-7.25L198.84-7.25Q198.84-6.45 199.04-5.15L199.04-5.15 179.39-7.25ZM182.09-21.65L201.84-21.65Q201.24-20.35 200.99-19.65L200.99-19.65 182.09-21.65ZM183.74-2.4L199.89-2.4Q200.49-1.2 201.19-0.55L201.19-0.55 183.74-2.4ZM188.79-26.45L206.19-26.45Q204.99-25.75 204.14-24.8L204.14-24.8 188.79-26.45ZM255.24-7.35L253.94 0 237.69 0 242.29-26.45 251.09-26.45 247.74-7.35 255.24-7.35ZM236.44-2.4L236.04-0.15 214.84-2.4 236.44-2.4ZM238.14-12.05L237.74-9.8 216.54-12.05 238.14-12.05ZM238.99-16.85L238.59-14.6 217.39-16.85 238.99-16.85ZM239.84-21.65L239.44-19.4 218.24-21.65 239.84-21.65ZM240.64-26.45L240.29-24.2 219.09-26.45 240.64-26.45ZM237.29-7.25L236.89-5 215.69-7.25 237.29-7.25ZM283.73-15.55L282.73-9.6 276.13-9.6 274.43 0 266.03 0 270.63-26.45 287.28-26.45 284.98-18.95 277.73-18.95 277.13-15.55 283.73-15.55ZM264.83-2.4L264.43-0.15 243.23-2.4 264.83-2.4ZM266.53-12.05L266.13-9.8 244.93-12.05 266.53-12.05ZM267.38-16.85L266.98-14.6 245.78-16.85 267.38-16.85ZM268.23-21.65L267.83-19.4 246.63-21.65 268.23-21.65ZM269.03-26.45L268.68-24.2 247.48-26.45 269.03-26.45ZM265.68-7.25L265.28-5 244.08-7.25 265.68-7.25Z" fill="#000000" data-fill-palette-color="secondary"></path><path d="M297.03-16.85L296.88-15.85Q296.78-15.45 296.68-14.75L296.68-14.75 277.03-16.85 297.03-16.85ZM276.48-12.05L296.33-12.05Q296.18-10.9 296.18-9.95L296.18-9.95 276.48-12.05ZM278.23-21.65L298.23-21.65 297.63-19.6 278.23-21.65ZM277.13-7.25L296.23-7.25Q296.43-5.85 296.58-5.15L296.58-5.15 277.13-7.25ZM280.58-26.45L300.28-26.45Q299.58-25.15 299.28-24.45L299.28-24.45 280.58-26.45ZM281.93-2.4L297.73-2.4Q298.38-1.25 299.23-0.55L299.23-0.55 281.93-2.4ZM287.48-31.25L305.03-31.25Q303.58-30.35 302.78-29.6L302.78-29.6 287.48-31.25ZM309.43 0.75L309.43 0.75Q303.13 0.75 300.41-1.7 297.68-4.15 297.68-9.25L297.68-9.25Q297.68-11.4 298.38-15.6L298.38-15.6Q299.88-24.2 303.56-28.1 307.23-32 315.18-32L315.18-32Q317.03-32 319.41-31.63 321.78-31.25 322.88-30.7L322.88-30.7 320.08-23.05Q317.13-23.75 314.56-23.75 311.98-23.75 310.88-23.25 309.78-22.75 309.53-21.25L309.53-21.25 307.23-8.15Q309.03-7.75 310.93-7.75L310.93-7.75Q314.98-7.75 318.33-8.95L318.33-8.95 317.53-0.55Q314.33 0.75 309.43 0.75ZM346.88-26.95L346.88-26.95Q352.28-26.95 354.58-24.88 356.88-22.8 356.88-18.4L356.88-18.4Q356.88-16.25 356.33-13.2L356.33-13.2Q355.08-6 351.93-2.7 348.78 0.6 342.03 0.6L342.03 0.6Q336.73 0.6 334.48-1.48 332.23-3.55 332.23-7.9L332.23-7.9Q332.23-10.15 332.78-13.2L332.78-13.2Q334.03-20.4 337.13-23.68 340.23-26.95 346.88-26.95ZM340.53-7L343.48-7Q344.93-7 345.65-7.35 346.38-7.7 346.63-8.9L346.63-8.9 348.53-19.35 345.48-19.35Q344.08-19.35 343.3-19 342.53-18.65 342.38-17.5L342.38-17.5 340.53-7ZM311.08-12.05L331.03-12.05Q330.83-10.5 330.78-9.95L330.78-9.95 311.08-12.05ZM311.98-16.85L331.98-16.85 331.53-14.75 311.98-16.85ZM311.28-7.25L330.73-7.25Q330.73-6.45 330.93-5.15L330.93-5.15 311.28-7.25ZM313.98-21.65L333.73-21.65Q333.13-20.35 332.88-19.65L332.88-19.65 313.98-21.65ZM315.63-2.4L331.78-2.4Q332.38-1.2 333.08-0.55L333.08-0.55 315.63-2.4ZM320.68-26.45L338.08-26.45Q336.88-25.75 336.03-24.8L336.03-24.8 320.68-26.45ZM374.17-26.45L385.42-26.45Q390.87-26.45 393.22-24.5 395.58-22.55 395.58-18.25L395.58-18.25Q395.58-16.2 395.03-13.2L395.03-13.2Q393.78-6.1 390.7-3.05 387.62 0 380.78 0L380.78 0 369.58 0 374.17-26.45ZM384.22-19.15L384.22-19.15 381.33-19.15 379.22-7.15 382.12-7.15Q383.58-7.15 384.35-7.53 385.12-7.9 385.33-9.05L385.33-9.05 386.78-17.3Q386.83-17.5 386.83-18.1L386.83-18.1Q386.83-19.15 384.22-19.15ZM368.33-2.4L367.92-0.15 346.73-2.4 368.33-2.4ZM370.03-12.05L369.62-9.8 348.42-12.05 370.03-12.05ZM370.87-16.85L370.47-14.6 349.27-16.85 370.87-16.85ZM371.72-21.65L371.33-19.4 350.12-21.65 371.72-21.65ZM372.53-26.45L372.17-24.2 350.98-26.45 372.53-26.45ZM369.17-7.25L368.78-5 347.58-7.25 369.17-7.25ZM426.92-15.55L426.07-10.75 418.62-10.75 418.02-7.35 427.27-7.35 425.97 0 408.32 0 412.92-26.45 430.52-26.45 428.17-18.95 420.02-18.95 419.42-15.55 426.92-15.55ZM407.07-2.4L406.67-0.15 385.47-2.4 407.07-2.4ZM408.77-12.05L408.37-9.8 387.17-12.05 408.77-12.05ZM409.62-16.85L409.22-14.6 388.02-16.85 409.62-16.85ZM410.47-21.65L410.07-19.4 388.87-21.65 410.47-21.65ZM411.27-26.45L410.92-24.2 389.72-26.45 411.27-26.45ZM407.92-7.25L407.52-5 386.32-7.25 407.92-7.25ZM439.92-0.15L419.02-2.4 440.62-2.4 439.92-0.15ZM422.87-21.65L444.42-21.65Q444.12-20.85 443.77-19.4L443.77-19.4 422.87-21.65ZM443.17-15L443.17-15 443.17-14.6 421.97-16.85 443.27-16.85Q443.17-15.65 443.17-15ZM442.22-7.25L441.52-5.05 420.67-7.25 442.22-7.25ZM426.32-26.45L447.87-26.45Q446.52-25.45 445.82-24.35L445.82-24.35 426.32-26.45ZM423.92-12.05L443.62-12.05Q444.07-10.75 445.07-9.8L445.07-9.8 423.92-12.05ZM465.97-25.9L463.57-18.6Q460.17-19.4 457.77-19.4 455.37-19.4 454.22-19.25L454.22-19.25 453.97-17.8 456.47-17.5Q464.52-16.45 464.52-10.85L464.52-10.85Q464.52-10.2 464.22-8.43 463.92-6.65 463.22-5 462.52-3.35 461.45-2.33 460.37-1.3 459.35-0.68 458.32-0.05 456.72 0.2L456.72 0.2Q454.22 0.6 450.05 0.6 445.87 0.6 441.62-0.55L441.62-0.55 444.07-7.95Q447.97-6.85 450.9-6.85 453.82-6.85 455.02-7L455.02-7 455.27-8.6 452.12-8.95Q448.07-9.4 446.37-10.85 444.67-12.3 444.67-15L444.67-15Q444.67-16 444.92-17.5L444.92-17.5Q445.92-22.85 448.52-24.9 451.12-26.95 456.45-26.95 461.77-26.95 465.97-25.9L465.97-25.9Z" fill="#000000" data-fill-palette-color="accent"></path></g></svg></g></svg></g><g transform="matrix(1,0,0,1,0,28.299509995030544)"><svg viewBox="0 0 185.7678336 7.247047707444906" height="7.247047707444906" width="185.7678336"><g transform="matrix(1,0,0,1,0,0)"><svg width="185.7678336" viewBox="-12.5 -32 839.4400024414062 32.75" height="7.247047707444906" data-palette-color="#ff851b"><path d="M9.1-2.4L8.6-0.15-12.5-2.4 9.1-2.4ZM10.25-7.25L9.7-5-11.35-7.25 10.25-7.25ZM11.35-12.05L10.85-9.8-10.2-12.05 11.35-12.05ZM12.5-16.85L11.95-14.6-9.05-16.85 12.5-16.85ZM13.6-21.65L13.1-19.4-7.9-21.65 13.6-21.65ZM14.75-26.45L14.2-24.2-6.75-26.45 14.75-26.45ZM15.85-31.25L15.35-29-5.6-31.25 15.85-31.25ZM23.25-15.15L20 0 10.1 0 17.4-31.25 29.8-31.25 30.7-15.35 31.05-15.35 37.55-31.25 49.95-31.25 46.25 0 36.3 0 38.4-15.15 38.05-15.15 31.8 0 24.55 0 23.5-15.15 23.25-15.15ZM63.2-2.4L62.8-0.15 41.65-2.4 63.2-2.4ZM64-7.25L63.65-5 42.5-7.25 64-7.25ZM63.55-12.05L64-9.8 42.8-12.05 63.55-12.05ZM62.6-16.85L63.05-14.6 41.85-16.85 62.6-16.85ZM40-26.45L60.7-26.45 61.15-24.2 40-26.45ZM40.95-21.65L61.65-21.65 62.1-19.4 40.95-21.65ZM59.8-31.25L60.25-29 39.1-31.25 59.8-31.25ZM61.3-31.25L71.8-31.25 72.45-20.25 72.8-20.25 77.4-31.25 87.9-31.25 75.3-8.5 73.85 0 64.35 0 65.8-8.5 61.3-31.25ZM103.59-16.85L103.44-15.85Q103.34-15.45 103.24-14.75L103.24-14.75 83.59-16.85 103.59-16.85ZM83.04-12.05L102.89-12.05Q102.74-10.9 102.74-9.95L102.74-9.95 83.04-12.05ZM84.79-21.65L104.79-21.65 104.19-19.6 84.79-21.65ZM83.69-7.25L102.79-7.25Q102.99-5.85 103.14-5.15L103.14-5.15 83.69-7.25ZM87.14-26.45L106.84-26.45Q106.14-25.15 105.84-24.45L105.84-24.45 87.14-26.45ZM88.49-2.4L104.29-2.4Q104.94-1.25 105.79-0.55L105.79-0.55 88.49-2.4ZM94.04-31.25L111.59-31.25Q110.14-30.35 109.34-29.6L109.34-29.6 94.04-31.25ZM115.99 0.75L115.99 0.75Q109.69 0.75 106.97-1.7 104.24-4.15 104.24-9.25L104.24-9.25Q104.24-11.4 104.94-15.6L104.94-15.6Q106.44-24.2 110.12-28.1 113.79-32 121.74-32L121.74-32Q123.59-32 125.97-31.63 128.34-31.25 129.44-30.7L129.44-30.7 126.64-23.05Q123.69-23.75 121.12-23.75 118.54-23.75 117.44-23.25 116.34-22.75 116.09-21.25L116.09-21.25 113.79-8.15Q115.59-7.75 117.49-7.75L117.49-7.75Q121.54-7.75 124.89-8.95L124.89-8.95 124.09-0.55Q120.89 0.75 115.99 0.75ZM147.79-7.8L151.74-7.8Q153.69-7.8 154.64-8.28 155.59-8.75 155.89-10.45L155.89-10.45 158.19-23.45 154.19-23.45Q152.29-23.45 151.34-22.98 150.39-22.5 150.09-20.8L150.09-20.8 147.79-7.8ZM155.84-32L155.84-32Q162.19-32 164.89-29.53 167.59-27.05 167.59-21.9 167.59-16.75 165.97-11.13 164.34-5.5 160.81-2.38 157.29 0.75 150.52 0.75 143.74 0.75 141.04-1.73 138.34-4.2 138.34-9.35L138.34-9.35Q138.34-11.8 139.04-15.83 139.74-19.85 140.89-22.78 142.04-25.7 143.99-27.85L143.99-27.85Q147.74-32 155.84-32ZM137.74-16.85L137.59-15.85Q137.49-15.45 137.39-14.75L137.39-14.75 117.74-16.85 137.74-16.85ZM117.19-12.05L137.04-12.05Q136.89-10.9 136.89-9.95L136.89-9.95 117.19-12.05ZM118.94-21.65L138.94-21.65 138.34-19.6 118.94-21.65ZM117.84-7.25L136.94-7.25Q137.14-5.85 137.29-5.15L137.29-5.15 117.84-7.25ZM121.29-26.45L140.99-26.45Q140.29-25.15 139.99-24.45L139.99-24.45 121.29-26.45ZM122.64-2.4L138.44-2.4Q139.09-1.25 139.94-0.55L139.94-0.55 122.64-2.4ZM128.19-31.25L145.74-31.25Q144.29-30.35 143.49-29.6L143.49-29.6 128.19-31.25ZM184.44-31.25L197.74-31.25Q204.19-31.25 206.91-28.98 209.64-26.7 209.64-21.6L209.64-21.6Q209.64-19 209.04-15.6L209.04-15.6Q207.54-7.2 203.91-3.6 200.29 0 192.24 0L192.24 0 178.94 0 184.44-31.25ZM196.44-23.25L196.44-23.25 192.49-23.25 189.84-8 193.79-8Q195.74-8 196.69-8.47 197.64-8.95 197.94-10.65L197.94-10.65 199.69-20.6Q199.74-20.9 199.74-21.4L199.74-21.4Q199.74-22.55 198.94-22.9 198.14-23.25 196.44-23.25ZM177.84-2.4L177.44-0.15 156.24-2.4 177.84-2.4ZM179.54-12.05L179.14-9.8 157.94-12.05 179.54-12.05ZM180.39-16.85L179.99-14.6 158.79-16.85 180.39-16.85ZM181.24-21.65L180.84-19.4 159.64-21.65 181.24-21.65ZM182.04-26.45L181.69-24.2 160.49-26.45 182.04-26.45ZM178.69-7.25L178.29-5 157.09-7.25 178.69-7.25ZM182.89-31.25L182.49-29 161.34-31.25 182.89-31.25ZM243.34-19.05L242.04-11.8 232.54-11.8 231.89-8 243.54-8 242.14 0 220.99 0 226.49-31.25 247.39-31.25 244.79-23.25 234.54-23.25 233.84-19.05 243.34-19.05ZM219.89-2.4L219.49-0.15 198.29-2.4 219.89-2.4ZM221.59-12.05L221.19-9.8 199.99-12.05 221.59-12.05ZM222.44-16.85L222.04-14.6 200.84-16.85 222.44-16.85ZM223.29-21.65L222.89-19.4 201.69-21.65 223.29-21.65ZM224.09-26.45L223.74-24.2 202.54-26.45 224.09-26.45ZM220.74-7.25L220.34-5 199.14-7.25 220.74-7.25ZM224.94-31.25L224.54-29 203.39-31.25 224.94-31.25ZM276.78 0L267.28 0 272.78-31.25 282.28-31.25 276.78 0ZM266.18-2.4L265.78-0.15 244.58-2.4 266.18-2.4ZM267.88-12.05L267.48-9.8 246.28-12.05 267.88-12.05ZM268.73-16.85L268.33-14.6 247.13-16.85 268.73-16.85ZM269.58-21.65L269.18-19.4 247.98-21.65 269.58-21.65ZM270.38-26.45L270.03-24.2 248.83-26.45 270.38-26.45ZM267.03-7.25L266.63-5 245.43-7.25 267.03-7.25ZM271.23-31.25L270.83-29 249.68-31.25 271.23-31.25ZM295.18-19.4L295.18-19.4 273.98-21.65 295.53-21.65Q295.28-20.65 295.18-19.4ZM275.38-26.45L296.88-26.45 296.13-24.25 275.38-26.45ZM274.43-16.85L295.18-16.85Q295.28-15.5 295.58-14.6L295.58-14.6 274.43-16.85ZM302.18-9.8L302.18-9.8 275.73-12.05 297.28-12.05Q298.93-10.45 302.18-9.8ZM279.13-31.25L300.63-31.25Q299.48-30.5 298.43-29.2L298.43-29.2 279.13-31.25ZM292.83-5.05L274.88-7.25 293.58-7.25 292.83-5.05ZM291.23-0.2L274.03-2.4 291.98-2.4 291.23-0.2ZM292.93-0.55L295.73-8.8Q299.93-7.65 303.4-7.65 306.88-7.65 309.08-7.95L309.08-7.95 309.48-10.45 305.33-10.85Q300.58-11.3 298.6-13 296.63-14.7 296.63-17.8L296.63-17.8Q296.63-19.15 296.93-20.8L296.93-20.8Q298.08-27.2 301.13-29.6 304.18-32 310.5-32 316.83-32 321.68-30.75L321.68-30.75 319.08-22.75Q314.73-23.5 312.1-23.5 309.48-23.5 307.58-23.25L307.58-23.25 307.18-20.8 310.53-20.45Q315.63-19.9 317.78-18.03 319.93-16.15 319.93-13L319.93-13Q319.93-9.8 318.58-6.4L318.58-6.4Q317.83-4.65 317-3.48 316.18-2.3 314.9-1.48 313.63-0.65 312.58-0.23 311.53 0.2 309.88 0.4L309.88 0.4Q307.58 0.75 304.18 0.75L304.18 0.75Q297.98 0.75 292.93-0.55L292.93-0.55ZM344.22-2.4L343.82-0.15 322.67-2.4 344.22-2.4ZM345.02-7.25L344.67-5 323.52-7.25 345.02-7.25ZM344.57-12.05L345.02-9.8 323.82-12.05 344.57-12.05ZM343.62-16.85L344.07-14.6 322.87-16.85 343.62-16.85ZM321.02-26.45L341.72-26.45 342.17-24.2 321.02-26.45ZM321.97-21.65L342.67-21.65 343.12-19.4 321.97-21.65ZM340.82-31.25L341.27-29 320.12-31.25 340.82-31.25ZM342.32-31.25L352.82-31.25 353.47-20.25 353.82-20.25 358.42-31.25 368.92-31.25 356.32-8.5 354.87 0 345.37 0 346.82-8.5 342.32-31.25ZM384.67-7.8L388.62-7.8Q390.57-7.8 391.52-8.28 392.47-8.75 392.77-10.45L392.77-10.45 395.07-23.45 391.07-23.45Q389.17-23.45 388.22-22.98 387.27-22.5 386.97-20.8L386.97-20.8 384.67-7.8ZM392.72-32L392.72-32Q399.07-32 401.77-29.53 404.47-27.05 404.47-21.9 404.47-16.75 402.85-11.13 401.22-5.5 397.69-2.38 394.17 0.75 387.39 0.75 380.62 0.75 377.92-1.73 375.22-4.2 375.22-9.35L375.22-9.35Q375.22-11.8 375.92-15.83 376.62-19.85 377.77-22.78 378.92-25.7 380.87-27.85L380.87-27.85Q384.62-32 392.72-32ZM374.62-16.85L374.47-15.85Q374.37-15.45 374.27-14.75L374.27-14.75 354.62-16.85 374.62-16.85ZM354.07-12.05L373.92-12.05Q373.77-10.9 373.77-9.95L373.77-9.95 354.07-12.05ZM355.82-21.65L375.82-21.65 375.22-19.6 355.82-21.65ZM354.72-7.25L373.82-7.25Q374.02-5.85 374.17-5.15L374.17-5.15 354.72-7.25ZM358.17-26.45L377.87-26.45Q377.17-25.15 376.87-24.45L376.87-24.45 358.17-26.45ZM359.52-2.4L375.32-2.4Q375.97-1.25 376.82-0.55L376.82-0.55 359.52-2.4ZM365.07-31.25L382.62-31.25Q381.17-30.35 380.37-29.6L380.37-29.6 365.07-31.25ZM417.92-21.65L417.52-19.4 396.32-21.65 417.92-21.65ZM417.07-16.85L416.67-14.6 395.52-16.85 417.07-16.85ZM419.62-31.25L419.22-29 398.07-31.25 419.62-31.25ZM418.37-24.2L397.22-26.45 418.77-26.45 418.37-24.2ZM394.82-12.05L416.22-12.05Q416.02-10.4 415.97-9.8L415.97-9.8 394.82-12.05ZM394.87-7.25L415.87-7.25Q415.87-6.05 416.02-5L416.02-5 394.87-7.25ZM397.17-2.4L416.72-2.4Q417.37-1 418.32-0.15L418.32-0.15 397.17-2.4ZM426.52-7.8L429.92-7.8Q431.67-7.8 432.42-8.28 433.17-8.75 433.47-10.45L433.47-10.45 437.17-31.25 446.67-31.25 443.57-13.7Q442.82-9.45 441.84-6.85 440.87-4.25 439.12-2.45 437.37-0.65 434.79 0.05 432.22 0.75 428.27 0.75L428.27 0.75Q422.22 0.75 419.79-1.07 417.37-2.9 417.37-7.35L417.37-7.35Q417.37-9.8 418.07-13.7L418.07-13.7 421.17-31.25 430.67-31.25 426.52-7.8ZM462.01-31.25L477.01-31.25Q485.56-31.25 485.56-23.6L485.56-23.6Q485.56-20.45 484.62-17.6L484.62-17.6Q482.87-12.2 479.12-10.4L479.12-10.4 482.42 0 471.96 0 469.67-9.3 467.62-9.3 466.01 0 456.51 0 462.01-31.25ZM468.96-17L471.17-17Q472.87-17 473.74-17.38 474.62-17.75 474.94-19.53 475.26-21.3 475.26-21.7L475.26-21.7Q475.26-22.7 474.49-22.98 473.71-23.25 471.96-23.25L471.96-23.25 470.06-23.25 468.96-17ZM455.42-2.4L455.01-0.15 433.81-2.4 455.42-2.4ZM457.12-12.05L456.71-9.8 435.51-12.05 457.12-12.05ZM458.76-21.65L458.37-19.4 437.21-21.65 458.76-21.65ZM459.62-26.45L459.21-24.2 438.06-26.45 459.62-26.45ZM456.26-7.25L455.87-5 434.67-7.25 456.26-7.25ZM460.46-31.25L460.06-29 438.92-31.25 460.46-31.25ZM457.92-16.85L457.51-14.6 436.37-16.85 457.92-16.85ZM505.81-16.85L505.66-15.85Q505.56-15.45 505.46-14.75L505.46-14.75 485.81-16.85 505.81-16.85ZM485.26-12.05L505.11-12.05Q504.96-10.9 504.96-9.95L504.96-9.95 485.26-12.05ZM487.01-21.65L507.01-21.65 506.41-19.6 487.01-21.65ZM485.91-7.25L505.01-7.25Q505.21-5.85 505.36-5.15L505.36-5.15 485.91-7.25ZM489.36-26.45L509.06-26.45Q508.36-25.15 508.06-24.45L508.06-24.45 489.36-26.45ZM490.71-2.4L506.51-2.4Q507.16-1.25 508.01-0.55L508.01-0.55 490.71-2.4ZM496.26-31.25L513.81-31.25Q512.36-30.35 511.56-29.6L511.56-29.6 496.26-31.25ZM518.21 0.75L518.21 0.75Q511.91 0.75 509.19-1.7 506.46-4.15 506.46-9.25L506.46-9.25Q506.46-11.4 507.16-15.6L507.16-15.6Q508.66-24.2 512.34-28.1 516.01-32 523.96-32L523.96-32Q525.81-32 528.18-31.63 530.56-31.25 531.66-30.7L531.66-30.7 528.86-23.05Q525.91-23.75 523.34-23.75 520.76-23.75 519.66-23.25 518.56-22.75 518.31-21.25L518.31-21.25 516.01-8.15Q517.81-7.75 519.71-7.75L519.71-7.75Q523.76-7.75 527.11-8.95L527.11-8.95 526.31-0.55Q523.11 0.75 518.21 0.75ZM550.01-7.8L553.96-7.8Q555.91-7.8 556.86-8.28 557.81-8.75 558.11-10.45L558.11-10.45 560.41-23.45 556.41-23.45Q554.51-23.45 553.56-22.98 552.61-22.5 552.31-20.8L552.31-20.8 550.01-7.8ZM558.06-32L558.06-32Q564.41-32 567.11-29.53 569.81-27.05 569.81-21.9 569.81-16.75 568.18-11.13 566.56-5.5 563.03-2.38 559.51 0.75 552.73 0.75 545.96 0.75 543.26-1.73 540.56-4.2 540.56-9.35L540.56-9.35Q540.56-11.8 541.26-15.83 541.96-19.85 543.11-22.78 544.26-25.7 546.21-27.85L546.21-27.85Q549.96-32 558.06-32ZM539.96-16.85L539.81-15.85Q539.71-15.45 539.61-14.75L539.61-14.75 519.96-16.85 539.96-16.85ZM519.41-12.05L539.26-12.05Q539.11-10.9 539.11-9.95L539.11-9.95 519.41-12.05ZM521.16-21.65L541.16-21.65 540.56-19.6 521.16-21.65ZM520.06-7.25L539.16-7.25Q539.36-5.85 539.51-5.15L539.51-5.15 520.06-7.25ZM523.51-26.45L543.21-26.45Q542.51-25.15 542.21-24.45L542.21-24.45 523.51-26.45ZM524.86-2.4L540.66-2.4Q541.31-1.25 542.16-0.55L542.16-0.55 524.86-2.4ZM530.41-31.25L547.96-31.25Q546.51-30.35 545.71-29.6L545.71-29.6 530.41-31.25ZM580.05-2.4L579.55-0.15 558.45-2.4 580.05-2.4ZM581.2-7.25L580.65-5 559.6-7.25 581.2-7.25ZM582.3-12.05L581.8-9.8 560.75-12.05 582.3-12.05ZM583.45-16.85L582.9-14.6 561.9-16.85 583.45-16.85ZM584.55-21.65L584.05-19.4 563.05-21.65 584.55-21.65ZM585.7-26.45L585.15-24.2 564.2-26.45 585.7-26.45ZM586.8-31.25L586.3-29 565.35-31.25 586.8-31.25ZM594.2-15.15L590.95 0 581.05 0 588.35-31.25 600.75-31.25 601.65-15.35 602-15.35 608.5-31.25 620.9-31.25 617.2 0 607.25 0 609.35-15.15 609-15.15 602.75 0 595.5 0 594.45-15.15 594.2-15.15ZM631.2-2.4L630.7-0.15 609.6-2.4 631.2-2.4ZM632.35-7.25L631.8-5 610.75-7.25 632.35-7.25ZM633.45-12.05L632.95-9.8 611.9-12.05 633.45-12.05ZM634.6-16.85L634.05-14.6 613.05-16.85 634.6-16.85ZM635.7-21.65L635.2-19.4 614.2-21.65 635.7-21.65ZM636.85-26.45L636.3-24.2 615.35-26.45 636.85-26.45ZM637.95-31.25L637.45-29 616.5-31.25 637.95-31.25ZM645.35-15.15L642.1 0 632.2 0 639.5-31.25 651.9-31.25 652.8-15.35 653.15-15.35 659.65-31.25 672.05-31.25 668.35 0 658.4 0 660.5-15.15 660.15-15.15 653.9 0 646.65 0 645.6-15.15 645.35-15.15ZM694.8-4.95L692.85 0 682.85 0 696-31.25 710.7-31.25 712.9 0 702.85 0 702.65-4.95 694.8-4.95ZM697.9-12.9L701.9-12.9 701.9-21.65 701.4-21.65 697.9-12.9ZM682.2-2.4L681.25-0.2 660.75-2.4 682.2-2.4ZM684.25-7.25L683.3-5.05 662.8-7.25 684.25-7.25ZM686.25-12.05L685.35-9.85 664.85-12.05 686.25-12.05ZM688.3-16.85L687.35-14.65 666.9-16.85 688.3-16.85ZM690.3-21.65L689.4-19.45 668.95-21.65 690.3-21.65ZM694.35-31.25L693.45-29.1 673.05-31.25 694.35-31.25ZM692.3-26.45L691.4-24.3 671-26.45 692.3-26.45ZM673.05-31.25L693.45-29.1 694.35-31.25 673.05-31.25ZM743.45 0L738.35-11.1Q738.15-11.45 738.15-12.08 738.15-12.7 738.25-13.5L738.25-13.5 737.85-13.5 735.5 0 726 0 731.5-31.25 740.45-31.25 745.55-20.15Q745.7-19.8 745.7-19.18 745.7-18.55 745.6-17.75L745.6-17.75 746-17.75 748.4-31.25 757.9-31.25 752.4 0 743.45 0ZM724.9-2.4L724.5-0.15 703.3-2.4 724.9-2.4ZM726.6-12.05L726.2-9.8 705-12.05 726.6-12.05ZM727.45-16.85L727.05-14.6 705.85-16.85 727.45-16.85ZM728.3-21.65L727.9-19.4 706.7-21.65 728.3-21.65ZM729.1-26.45L728.75-24.2 707.55-26.45 729.1-26.45ZM725.75-7.25L725.35-5 704.15-7.25 725.75-7.25ZM729.95-31.25L729.55-29 708.4-31.25 729.95-31.25ZM774.04-31.25L787.34-31.25Q793.79-31.25 796.52-28.98 799.24-26.7 799.24-21.6L799.24-21.6Q799.24-19 798.64-15.6L798.64-15.6Q797.14-7.2 793.52-3.6 789.89 0 781.84 0L781.84 0 768.54 0 774.04-31.25ZM786.04-23.25L786.04-23.25 782.09-23.25 779.44-8 783.39-8Q785.34-8 786.29-8.47 787.24-8.95 787.54-10.65L787.54-10.65 789.29-20.6Q789.34-20.9 789.34-21.4L789.34-21.4Q789.34-22.55 788.54-22.9 787.74-23.25 786.04-23.25ZM767.44-2.4L767.04-0.15 745.84-2.4 767.44-2.4ZM769.14-12.05L768.74-9.8 747.54-12.05 769.14-12.05ZM769.99-16.85L769.59-14.6 748.39-16.85 769.99-16.85ZM770.84-21.65L770.44-19.4 749.24-21.65 770.84-21.65ZM771.64-26.45L771.29-24.2 750.09-26.45 771.64-26.45ZM768.29-7.25L767.89-5 746.69-7.25 768.29-7.25ZM772.49-31.25L772.09-29 750.94-31.25 772.49-31.25ZM812.49-12.05L812.24-9.8 791.09-12.05 812.49-12.05ZM812.99-16.85L812.74-14.6 791.94-16.85 812.99-16.85ZM813.54-21.65L813.29-19.4 792.79-21.65 813.54-21.65ZM814.04-26.45L813.79-24.2 793.64-26.45 814.04-26.45ZM809.79-2.4L809.79-2.2Q809.79-1.05 810.19-0.15L810.19-0.15 789.39-2.4 809.79-2.4ZM790.24-7.25L811.54-7.25Q810.69-6.35 810.24-5.1L810.24-5.1 790.24-7.25ZM817.99-31.25L817.99-31.25 825.39-31.25Q826.94-31.25 826.94-30.25L826.94-30.25Q826.94-30 826.89-29.9L826.89-29.9 821.64-8.5 813.59-8.5 815.94-29.9Q816.14-31.25 817.99-31.25ZM811.29-2.2L811.29-2.2Q811.29-5.05 812.84-6.25 814.39-7.45 817.24-7.45 820.09-7.45 821.14-6.83 822.19-6.2 822.19-4.8L822.19-4.8Q822.19-2 820.87-0.83 819.54 0.35 816.47 0.35 813.39 0.35 812.34-0.23 811.29-0.8 811.29-2.2Z" opacity="1" transform="matrix(1,0,0,1,0,0)" fill="#000000" class="undefined-text-1" data-fill-palette-color="secondary" id="text-1"></path></svg></g></svg></g></svg></g></svg></g></svg></g></svg></g></svg></g></svg><rect width="395.52" height="247.2" fill="transparent" stroke="transparent"></rect></g></svg></g></svg>